<svg width="18" height="20" viewBox="0 0 18 20" fill="none" xmlns="http://www.w3.org/2000/svg">
<g clip-path="url(#clip0_1_25)">
<g clip-path="url(#clip1_1_25)">
<g clip-path="url(#clip2_1_25)">
<path d="M8.7285 9.90401L1.51245 17.5679V17.5722C1.73339 18.4041 2.49252 19.0165 3.39471 19.0165C3.75445 19.0165 4.09295 18.9187 4.38329 18.7486L4.40595 18.7345L12.5284 14.0442L8.72709 9.90259L8.7285 9.90401Z" fill="#EA4435"/>
<path d="M16.0268 8.59828L16.0197 8.59403L12.5129 6.56006L8.56284 10.0781L12.5271 14.044L16.0155 12.0298C16.6272 11.6996 17.0422 11.0546 17.0422 10.3105C17.0422 9.56637 16.6329 8.92996 16.0268 8.59828Z" fill="#F9BC15"/>
<path d="M1.51342 3.02148C1.46951 3.18165 1.44685 3.35032 1.44685 3.52324V17.0665C1.44685 17.2409 1.46951 17.4081 1.51342 17.5682L8.97732 10.1L1.51342 3.02148Z" fill="#547DBF"/>
<path d="M8.78092 10.2954L12.5157 6.55917L4.40312 1.85198C4.10853 1.67481 3.76437 1.57275 3.39613 1.57275C2.49394 1.57275 1.73339 2.18649 1.51245 3.01992V3.02134L8.78092 10.2954Z" fill="#33A852"/>
</g>
</g>
</g>
<defs>
<clipPath id="clip0_1_25">
<rect width="16.69" height="18.69" fill="white" transform="translate(0.9 0.949951)"/>
</clipPath>
<clipPath id="clip1_1_25">
<rect width="16.69" height="18.69" fill="white" transform="translate(0.9 0.949951)"/>
</clipPath>
<clipPath id="clip2_1_25">
<rect width="16.3538" height="18.69" fill="white" transform="translate(1.06812 0.949951)"/>
</clipPath>
</defs>
</svg>
