<svg width="25" height="25" viewBox="0 0 25 25" fill="none" xmlns="http://www.w3.org/2000/svg">
<path d="M12.8141 6.07272C13.6689 6.07272 14.7404 5.49483 15.3785 4.7243C15.9564 4.02601 16.3777 3.05082 16.3777 2.07562C16.3777 1.94318 16.3657 1.81075 16.3416 1.70239C15.3905 1.73851 14.2468 2.34049 13.5605 3.14713C13.0187 3.76114 12.5251 4.7243 12.5251 5.71154C12.5251 5.85601 12.5492 6.00049 12.5612 6.04864C12.6214 6.06068 12.7177 6.07272 12.8141 6.07272ZM9.80418 20.6405C10.972 20.6405 11.4897 19.858 12.9465 19.858C14.4273 19.858 14.7524 20.6165 16.0527 20.6165C17.3289 20.6165 18.1837 19.4366 18.9903 18.2808C19.8933 16.9565 20.2665 15.6562 20.2906 15.596C20.2063 15.5719 17.7623 14.5726 17.7623 11.7674C17.7623 9.33542 19.6886 8.23983 19.7969 8.15555C18.5208 6.32555 16.5824 6.27739 16.0527 6.27739C14.62 6.27739 13.4521 7.14424 12.7177 7.14424C11.9231 7.14424 10.8757 6.32555 9.63563 6.32555C7.27589 6.32555 4.88004 8.27595 4.88004 11.9601C4.88004 14.2476 5.77096 16.6675 6.86655 18.2326C7.80563 19.557 8.62431 20.6405 9.80418 20.6405Z" fill="black"/>
</svg>
