<svg width="20" height="21" viewBox="0 0 20 21" fill="none" xmlns="http://www.w3.org/2000/svg">
<path d="M9.99975 11.0541C9.02666 11.0541 8.23784 10.2652 8.23784 9.29214C8.23784 8.31911 9.02666 7.53027 9.99975 7.53027C10.9728 7.53027 11.7617 8.31911 11.7617 9.29214C11.7617 10.2652 10.9728 11.0541 9.99975 11.0541Z" fill="#181A1C"/>
<path d="M2.99968 9.29097C2.99968 5.42502 6.13369 2.29102 9.99967 2.29102C13.8657 2.29102 16.9997 5.42502 16.9997 9.29097C16.9997 10.4062 16.7383 11.4628 16.2727 12.4006C15.7883 13.4463 14.6266 14.7263 13.5184 15.7931C12.3813 16.8879 11.1653 17.8847 10.462 18.3536L10.461 18.3521C10.3289 18.4401 10.1703 18.4914 9.99967 18.4914C9.82909 18.4914 9.6705 18.4401 9.53842 18.3521L9.53742 18.3536C8.8345 17.8849 7.61915 16.8887 6.48235 15.7944C5.3744 14.728 4.21302 13.4486 3.72795 12.403C3.26155 11.4646 2.99968 10.4072 2.99968 9.29097ZM9.99975 16.6346C10.6265 16.1601 11.5071 15.416 12.3625 14.5925C13.4829 13.5138 14.4293 12.4217 14.7636 11.693C14.7674 11.6846 14.7713 11.6765 14.7753 11.6683C15.132 10.9536 15.333 10.147 15.333 9.29097C15.333 6.3455 12.9452 3.95768 9.99967 3.95768C7.05416 3.95768 4.66635 6.3455 4.66635 9.29097C4.66635 10.1476 4.86769 10.9549 5.22487 11.6701C5.22889 11.6781 5.23277 11.6863 5.23653 11.6945C5.5717 12.4238 6.51825 13.5156 7.63817 14.5936C8.49317 15.4167 9.37325 16.1603 9.99975 16.6346Z" fill="#181A1C"/>
</svg>
